<?xml version="1.0" encoding="utf-8"?>
<!-- Generator: Adobe Illustrator 22.0.1, SVG Export Plug-In . SVG Version: 6.00 Build 0)  -->
<svg version="1.1" id="Ebene_1" xmlns="http://www.w3.org/2000/svg" xmlns:xlink="http://www.w3.org/1999/xlink" x="0px" y="0px"
	 viewBox="0 0 11 8.6" style="enable-background:new 0 0 11 8.6;" xml:space="preserve">
<style type="text/css">
	.st0{fill:#44423E;}
</style>
<path class="st0" d="M10.2,7.7c0,0.1-0.1,0.2-0.2,0.2H1c-0.1,0-0.2-0.1-0.2-0.2V2.9C0.9,3,1.1,3.2,1.2,3.3C2.1,4,3,4.7,3.8,5.4
	c0.5,0.4,1,0.9,1.7,0.9l0,0l0,0c0.6,0,1.2-0.5,1.7-0.9C8,4.7,8.9,4,9.8,3.4C10,3.3,10.1,3.1,10.2,3V7.7z M10.2,1.2
	c0,0.5-0.5,1.2-0.9,1.5C8.5,3.4,7.7,4,6.9,4.7c-0.4,0.2-1,0.8-1.4,0.8l0,0l0,0c-0.4,0-1-0.6-1.3-0.8C3.3,4,2.5,3.4,1.7,2.7
	C1.1,2.3,0.8,1.7,0.8,1c0-0.1,0.1-0.2,0.2-0.2h9C10.3,0.8,10.2,1.1,10.2,1.2z M11,1c0-0.5-0.4-1-1-1H1C0.4,0,0,0.4,0,1v6.7
	c0,0.5,0.4,1,1,1h9c0.5,0,1-0.4,1-1V1z"/>
</svg>
