<?xml version="1.0" encoding="utf-8"?>
<!-- Generator: Adobe Illustrator 22.0.1, SVG Export Plug-In . SVG Version: 6.00 Build 0)  -->
<svg version="1.1" id="Ebene_1" xmlns="http://www.w3.org/2000/svg" xmlns:xlink="http://www.w3.org/1999/xlink" x="0px" y="0px"
	 viewBox="0 0 9.5 9.5" style="enable-background:new 0 0 9.5 9.5;" xml:space="preserve">
<style type="text/css">
	.st0{fill:#44423E;}
</style>
<path class="st0" d="M9,6.6c-0.7,0-1.3-0.1-1.9-0.3c-0.2-0.1-0.4,0-0.5,0.1L5.4,7.6c-1.5-0.8-2.7-2-3.5-3.5l1.2-1.2
	c0.1-0.1,0.2-0.3,0.1-0.5C3,1.8,2.9,1.2,2.9,0.5C2.9,0.2,2.7,0,2.4,0H0.5C0.2,0,0,0.2,0,0.5c0,5,4,9,9,9c0.3,0,0.5-0.2,0.5-0.5V7.1
	C9.5,6.8,9.3,6.6,9,6.6z M4.8,0v5.3l1.6-1.6h3.2V0H4.8z"/>
</svg>
