<?xml version="1.0" encoding="UTF-8"?>
<svg width="256px" height="256px" viewBox="0 0 256 256" version="1.1" xmlns="http://www.w3.org/2000/svg" xmlns:xlink="http://www.w3.org/1999/xlink">
    <!-- Generator: Sketch 48.2 (47327) - http://www.bohemiancoding.com/sketch -->
    <title>360°-icon-1</title>
    <desc>Created with Sketch.</desc>
    <defs></defs>
    <g id="Page-1" stroke="none" stroke-width="1" fill="none" fill-rule="evenodd">
        <g id="360°-icon-1" fill="#FCC400">
            <g id="Group" transform="translate(2.000000, 85.000000)">
                <path d="M93.1318898,29.9624478 C93.1711745,32.434412 93.4952683,34.3182596 94.1041809,35.6140473 C94.7130936,36.9098349 95.9407217,37.5577191 97.787102,37.5577191 C98.8085039,37.5577191 99.623649,37.378305 100.232562,37.0194715 C100.841474,36.660638 101.312883,36.172233 101.646803,35.554242 C101.980723,34.936251 102.196786,34.2086273 102.294997,33.3713491 C102.393209,32.5340709 102.442314,31.6569355 102.442314,30.7399166 C102.442314,29.7830272 102.373567,28.8759895 102.236071,28.0187761 C102.098574,27.1615627 101.833407,26.3940692 101.44056,25.7162726 C101.047713,25.038476 100.497735,24.5002338 99.7906111,24.1015299 C99.0834867,23.702826 98.1406683,23.5034771 96.9621277,23.5034771 L94.1336443,23.5034771 L94.1336443,17.8817803 L96.903201,17.8817803 C97.8067488,17.8817803 98.5629677,17.6923987 99.1718803,17.31363 C99.780793,16.9348613 100.271844,16.4364889 100.645049,15.8184979 C101.018253,15.2005069 101.293242,14.4928181 101.470023,13.6954103 C101.646804,12.8980025 101.735193,12.0607369 101.735193,11.1835883 C101.735193,9.15019846 101.401279,7.71488597 100.733439,6.87760779 C100.065599,6.04032961 99.0442126,5.6216968 97.6692485,5.6216968 C96.7657007,5.6216968 96.0291239,5.79114341 95.4594959,6.13004172 C94.8898679,6.46894003 94.4479218,6.94737753 94.1336443,7.56536857 C93.8193668,8.1833596 93.6131253,8.9109833 93.5149136,9.74826147 C93.4167018,10.5855397 93.3675967,11.5025449 93.3675967,12.4993046 L85.5892674,12.4993046 C85.5892674,8.27304331 86.630296,5.13329724 88.7123845,3.07997218 C90.7944729,1.02664713 93.8389906,0 97.8460288,0 C101.656643,0 104.612772,0.87713541 106.714503,2.63143255 C108.816234,4.38572968 109.867083,7.13674529 109.867083,10.8845619 C109.867083,13.4362668 109.307285,15.5194634 108.187671,17.1342142 C107.068058,18.748965 105.506515,19.7756121 103.502996,20.2141864 L103.502996,20.3337969 C106.213639,20.7723712 108.128739,21.8787579 109.248352,23.6529903 C110.367966,25.4272226 110.927764,27.6499635 110.927764,30.3212796 C110.927764,31.7566136 110.750986,33.2317959 110.397424,34.7468707 C110.043862,36.2619455 109.35639,37.6374533 108.334988,38.8734353 C107.313586,40.1094174 105.90918,41.1061622 104.121726,41.8636996 C102.334273,42.621237 99.9870481,43 97.0799812,43 C93.0336583,43 90.0087827,41.8836458 88.0052636,39.650904 C86.0017445,37.4181622 85,34.2485138 85,30.1418637 L85,29.9624478 L93.1318898,29.9624478 Z M121.829211,29.1849791 C121.829211,30.3810908 121.888137,31.497445 122.005991,32.5340751 C122.123845,33.5707052 122.349729,34.4578081 122.683649,35.1954103 C123.017568,35.9330125 123.488978,36.5111245 124.09789,36.9297636 C124.706803,37.3484026 125.502306,37.5577191 126.484423,37.5577191 C127.505825,37.5577191 128.32097,37.3484026 128.929883,36.9297636 C129.538795,36.5111245 130.000384,35.923045 130.314661,35.1655076 C130.628939,34.4079703 130.83518,33.5208674 130.933392,32.5041725 C131.031604,31.4874775 131.080709,30.3810908 131.080709,29.1849791 C131.080709,26.3143111 130.727152,24.2610168 130.020027,23.0250348 C129.312903,21.7890527 128.13438,21.1710709 126.484423,21.1710709 C124.795182,21.1710709 123.597017,21.7890527 122.889892,23.0250348 C122.182768,24.2610168 121.829211,26.3143111 121.829211,29.1849791 Z M130.432515,10.7649513 C130.432515,9.09039497 130.147705,7.81456164 129.578077,6.93741307 C129.008449,6.06026451 128.016525,5.6216968 126.602277,5.6216968 C125.502305,5.6216968 124.608592,5.89081789 123.92111,6.42906815 C123.233628,6.96731841 122.703293,7.714877 122.330088,8.67176634 C121.956884,9.62865569 121.711358,10.7649447 121.593504,12.0806676 C121.47565,13.3963904 121.416724,14.8317029 121.416724,16.3866481 L121.416724,18.4798331 L121.534577,18.4798331 C122.241702,17.3634622 123.253267,16.4763593 124.569304,15.8184979 C125.885341,15.1606365 127.486168,14.8317107 129.371833,14.8317107 C131.218214,14.8317107 132.789578,15.1606365 134.085972,15.8184979 C135.382367,16.4763593 136.433217,17.3933645 137.238553,18.569541 C138.043889,19.7457175 138.63315,21.1411602 139.006355,22.755911 C139.379559,24.3706618 139.566159,26.1349 139.566159,28.0486787 C139.566159,32.9527366 138.495667,36.6705947 136.354652,39.2023644 C134.213636,41.7341341 130.786099,43 126.071936,43 C123.164869,43 120.847107,42.4816927 119.118581,41.4450626 C117.390055,40.4084325 116.064216,38.9830874 115.141026,37.1689847 C114.217836,35.354882 113.618754,33.2517505 113.343761,30.8595271 C113.068768,28.4673038 112.931274,25.9754418 112.931274,23.3838665 C112.931274,20.3935873 113.019663,17.49306 113.196444,14.6821975 C113.373225,11.871335 113.90356,9.37947308 114.787466,7.20653686 C115.671371,5.03360063 117.056136,3.28929726 118.941801,1.97357441 C120.827466,0.657851558 123.498784,0 126.955837,0 C128.448655,0 129.892346,0.179414061 131.286952,0.538247566 C132.681559,0.897081071 133.909187,1.49512794 134.969873,2.33240612 C136.03056,3.1696843 136.884989,4.27607101 137.533186,5.65159944 C138.181384,7.02712788 138.52512,8.73156146 138.564404,10.7649513 L130.432515,10.7649513 Z M141.451814,22.6063978 C141.451814,19.655989 141.550025,16.8252338 141.746448,14.1140473 C141.942872,11.4028608 142.473207,9.00070588 143.33747,6.90751043 C144.201733,4.81431499 145.507929,3.13978375 147.256098,1.88386648 C149.004267,0.627949214 151.43006,0 154.53355,0 C157.087055,0 159.198575,0.36879557 160.868174,1.10639777 C162.537774,1.84399998 163.873433,3.03012627 164.875193,4.66481224 C165.876952,6.29949821 166.584066,8.4225646 166.996555,11.0340751 C167.409044,13.6455856 167.615286,16.8252015 167.615286,20.5730181 C167.615286,23.5234269 167.517076,26.3541821 167.320652,29.0653686 C167.124229,31.776555 166.593893,34.17871 165.72963,36.2719054 C164.865367,38.3651009 163.559171,40.0097298 161.811002,41.2058414 C160.062834,42.4019531 157.637041,43 154.53355,43 C152.01933,43 149.917631,42.6611068 148.228389,41.9833102 C146.539148,41.3055135 145.193667,40.1492896 144.191908,38.5146036 C143.190148,36.8799176 142.483034,34.7568513 142.070545,32.1453408 C141.658056,29.5338302 141.451814,26.3542144 141.451814,22.6063978 Z M149.937265,24.4603616 C149.937265,27.1316777 150.006012,29.3145488 150.143508,31.0090403 C150.281005,32.7035319 150.52653,34.0391699 150.880092,35.0159944 C151.233655,35.992819 151.705064,36.660638 152.294334,37.0194715 C152.883604,37.378305 153.630002,37.5577191 154.53355,37.5577191 C155.476383,37.5577191 156.242423,37.3284678 156.831693,36.8699583 C157.420963,36.4114488 157.882551,35.6339879 158.216471,34.5375522 C158.550391,33.4411164 158.786096,31.9759016 158.923592,30.1418637 C159.061088,28.3078258 159.129836,26.0352477 159.129836,23.3240612 L159.129836,18.7190542 C159.129836,16.0477382 159.061088,13.8648671 158.923592,12.1703755 C158.786096,10.475884 158.54057,9.14024596 158.187008,8.16342142 C157.833446,7.18659688 157.362036,6.51877787 156.772766,6.15994437 C156.183496,5.80111086 155.437098,5.6216968 154.53355,5.6216968 C153.590718,5.6216968 152.824678,5.8509481 152.235407,6.30945758 C151.646137,6.76796706 151.184549,7.54542799 150.850629,8.6418637 C150.516709,9.73829941 150.281005,11.2035142 150.143508,13.0375522 C150.006012,14.8715901 149.937265,17.1441682 149.937265,19.8553547 L149.937265,24.4603616 Z M174.036118,8.8511822 C174.036118,10.0472939 174.448601,11.0639736 175.273579,11.9012517 C176.098558,12.7385299 177.100302,13.1571627 178.278843,13.1571627 C179.457384,13.1571627 180.459128,12.7385299 181.284106,11.9012517 C182.109085,11.0639736 182.521568,10.0472939 182.521568,8.8511822 C182.521568,7.65507051 182.109085,6.63839083 181.284106,5.80111266 C180.459128,4.96383448 179.457384,4.54520167 178.278843,4.54520167 C177.100302,4.54520167 176.098558,4.96383448 175.273579,5.80111266 C174.448601,6.63839083 174.036118,7.65507051 174.036118,8.8511822 Z M169.557686,8.8511822 C169.557686,7.61520013 169.783569,6.45897618 170.235343,5.38247566 C170.687117,4.30597515 171.305842,3.36903505 172.091535,2.57162726 C172.877229,1.77421947 173.800406,1.14627026 174.861092,0.687760779 C175.921779,0.2292513 177.061018,0 178.278843,0 C179.496668,0 180.635907,0.2292513 181.696594,0.687760779 C182.75728,1.14627026 183.680457,1.77421947 184.46615,2.57162726 C185.251844,3.36903505 185.870569,4.30597515 186.322343,5.38247566 C186.774116,6.45897618 187,7.61520013 187,8.8511822 C187,10.0871643 186.774116,11.2433882 186.322343,12.3198887 C185.870569,13.3963892 185.251844,14.3333293 184.46615,15.1307371 C183.680457,15.9281449 182.75728,16.5560941 181.696594,17.0146036 C180.635907,17.4731131 179.496668,17.7023644 178.278843,17.7023644 C177.061018,17.7023644 175.921779,17.4731131 174.861092,17.0146036 C173.800406,16.5560941 172.877229,15.9281449 172.091535,15.1307371 C171.305842,14.3333293 170.687117,13.3963892 170.235343,12.3198887 C169.783569,11.2433882 169.557686,10.0871643 169.557686,8.8511822 Z" id="360°"></path>
                <path d="M178.270747,39.1499418 C221.76995,42.1904864 252,48.9089169 252,56.7083833 C252,66.0653006 208.491445,73.8663387 150.759825,75.6276524 L150.759825,66.839316 C196.823177,65.5148821 231.091703,60.4945524 231.091703,54.5036271 C231.091703,49.7837292 209.821442,45.666274 178.270742,43.4839555 L178.270742,39.1499415 Z M75.930131,38.9999969 L75.930131,43.4089057 C43.7745777,45.5709733 22.0087336,49.7290606 22.0087336,54.5036271 C22.0087336,61.5051332 68.8135506,67.1809752 126.550218,67.1809752 C128.395841,67.1809752 130.230292,67.1751754 132.052402,67.1637179 L132.052402,75.9781348 C130.046851,75.9926569 128.029026,76 126,76 C56.4121215,76 0,67.362849 0,56.7083833 C0,48.7780421 31.2530807,41.9653205 75.9301277,39 Z" id="Combined-Shape"></path>
                <polygon id="Triangle" points="139 71 112 87 112 55"></polygon>
            </g>
        </g>
    </g>
</svg>